<svg xmlns="http://www.w3.org/2000/svg" xmlns:xlink="http://www.w3.org/1999/xlink" version="1.1" width="256" height="256" viewBox="0 0 256 256" xml:space="preserve">

<defs>
</defs>
<g style="stroke: none; stroke-width: 0; stroke-dasharray: none; stroke-linecap: butt; stroke-linejoin: miter; stroke-miterlimit: 10; fill: none; fill-rule: nonzero; opacity: 1;" transform="translate(1.4065934065934016 1.4065934065934016) scale(2.81 2.81)" >
	<path d="M 54.489 1.463 C 51.495 0.517 48.311 0 45.003 0 c -9.649 0 -18.284 4.362 -24.041 11.214 l 14.834 12.48 L 54.489 1.463 z" style="stroke: none; stroke-width: 1; stroke-dasharray: none; stroke-linecap: butt; stroke-linejoin: miter; stroke-miterlimit: 10; fill: rgb(64,112,183); fill-rule: nonzero; opacity: 1;" transform=" matrix(1 0 0 1 0 0) " stroke-linecap="round" />
	<path d="M 20.955 11.214 c -4.586 5.457 -7.356 12.5 -7.356 20.183 c 0 5.907 1.177 10.69 3.11 14.977 l 19.081 -22.68 L 20.955 11.214 z" style="stroke: none; stroke-width: 1; stroke-dasharray: none; stroke-linecap: butt; stroke-linejoin: miter; stroke-miterlimit: 10; fill: rgb(234,69,53); fill-rule: nonzero; opacity: 1;" transform=" matrix(1 0 0 1 0 0) " stroke-linecap="round" />
	<path d="M 45.003 19.394 c 6.635 0 12.01 5.376 12.01 12.01 c 0 2.953 -1.068 5.662 -2.838 7.751 c 0 0 9.486 -11.282 18.693 -22.224 C 69.065 9.615 62.471 3.988 54.496 1.463 L 35.79 23.694 C 37.994 21.061 41.302 19.394 45.003 19.394" style="stroke: none; stroke-width: 1; stroke-dasharray: none; stroke-linecap: butt; stroke-linejoin: miter; stroke-miterlimit: 10; fill: rgb(85,126,191); fill-rule: nonzero; opacity: 1;" transform=" matrix(1 0 0 1 0 0) " stroke-linecap="round" />
	<path d="M 45.003 43.408 c -6.635 0 -12.01 -5.376 -12.01 -12.01 c 0 -2.933 1.055 -5.621 2.797 -7.71 L 16.709 46.375 c 3.259 7.233 8.683 13.038 14.27 20.353 l 23.191 -27.573 C 51.971 41.754 48.678 43.408 45.003 43.408" style="stroke: none; stroke-width: 1; stroke-dasharray: none; stroke-linecap: butt; stroke-linejoin: miter; stroke-miterlimit: 10; fill: rgb(249,188,21); fill-rule: nonzero; opacity: 1;" transform=" matrix(1 0 0 1 0 0) " stroke-linecap="round" />
	<path d="M 53.714 74.254 c 10.473 -16.379 22.687 -23.817 22.687 -42.856 c 0 -5.219 -1.279 -10.139 -3.532 -14.467 L 30.986 66.728 c 1.776 2.327 3.566 4.804 5.315 7.533 C 42.669 84.1 40.9 90 45.01 90 C 49.107 90 47.344 84.093 53.714 74.254" style="stroke: none; stroke-width: 1; stroke-dasharray: none; stroke-linecap: butt; stroke-linejoin: miter; stroke-miterlimit: 10; fill: rgb(54,168,82); fill-rule: nonzero; opacity: 1;" transform=" matrix(1 0 0 1 0 0) " stroke-linecap="round" />
</g>
</svg>